<?xml version="1.0" standalone="no"?><!DOCTYPE svg PUBLIC "-//W3C//DTD SVG 1.1//EN" "http://www.w3.org/Graphics/SVG/1.1/DTD/svg11.dtd"><svg t="1546495523195" class="icon" style="" viewBox="0 0 1024 1024" version="1.1" xmlns="http://www.w3.org/2000/svg" p-id="11128" xmlns:xlink="http://www.w3.org/1999/xlink" width="32" height="32"><defs><style type="text/css"></style></defs><path d="M727.934492 694.683692c60.046584-67.008136 96.571453-155.563008 96.571453-252.643044 0-209.079876-169.492252-378.595664-378.595664-378.595664-209.102389 0-378.598734 169.515788-378.598734 378.595664 0 209.128995 169.495322 378.64376 378.598734 378.64376 95.078449 0 181.976588-35.056424 248.504794-92.963275l230.230592 230.251058 33.287127-33.286104L727.934492 694.683692zM445.911304 773.857916c-182.943612 0-331.772242-148.872632-331.772242-331.817268 0-182.89654 148.827607-331.814198 331.772242-331.814198 182.941566 0 331.769173 148.917658 331.769173 331.814198C777.680477 624.984261 628.85287 773.857916 445.911304 773.857916z" p-id="11129"></path></svg>