<?xml version="1.0" standalone="no"?><!DOCTYPE svg PUBLIC "-//W3C//DTD SVG 1.1//EN" "http://www.w3.org/Graphics/SVG/1.1/DTD/svg11.dtd"><svg t="1570781147270" class="icon" viewBox="0 0 1024 1024" version="1.1" xmlns="http://www.w3.org/2000/svg" p-id="888" width="16" height="16" xmlns:xlink="http://www.w3.org/1999/xlink"><defs><style type="text/css"></style></defs><path d="M287 962h530.35714248c45 0 80.35714248-35.35714248 80.35714336-80.35714248V576.28571416H158.42857168v257.14285752c0 70.71428584 57.85714248 128.57142832 128.57142832 128.57142832z" fill="#BAE7FF" p-id="889"></path><path d="M647 962H238.78571416C193.78571416 962 158.42857168 926.64285752 158.42857168 881.64285752v-739.28571504C158.42857168 97.35714248 193.78571416 62 238.78571416 62h575.35714336C862.35714248 62 897.71428584 97.35714248 897.71428584 142.35714248v572.14285752L647 962z" fill="#69C0FF" p-id="890"></path><path d="M650.21428584 962v-186.42857168c0-32.14285752 25.71428584-61.07142832 61.07142832-61.07142832H897.71428584L650.21428584 962z" fill="#1890FF" p-id="891"></path><path d="M319.14285752 640.57142832h417.85714248c19.28571416 0 32.14285752-12.85714248 32.14285752-32.14285664s-12.85714248-32.14285752-32.14285752-32.14285752H319.14285752c-19.28571416 0-32.14285752 12.85714248-32.14285752 32.14285752s12.85714248 32.14285752 32.14285752 32.14285664zM576.28571416 479.85714248h160.71428584c19.28571416 0 32.14285752-12.85714248 32.14285752-32.14285664s-12.85714248-32.14285752-32.14285752-32.14285752h-160.71428584c-19.28571416 0-32.14285752 12.85714248-32.14285664 32.14285752s12.85714248 32.14285752 32.14285664 32.14285664z" fill="#BAE7FF" p-id="892"></path><path d="M319.14285752 479.85714248h128.57142832c19.28571416 0 32.14285752-12.85714248 32.14285664-32.14285664V287c0-19.28571416-12.85714248-32.14285752-32.14285664-32.14285752H319.14285752c-19.28571416 0-32.14285752 12.85714248-32.14285752 32.14285752v160.71428584c0 19.28571416 12.85714248 32.14285752 32.14285752 32.14285664z" fill="#BAE7FF" p-id="893"></path><path d="M576.28571416 319.14285752h160.71428584c19.28571416 0 32.14285752-12.85714248 32.14285752-32.14285752s-12.85714248-32.14285752-32.14285752-32.14285752h-160.71428584c-19.28571416 0-32.14285752 12.85714248-32.14285664 32.14285752s12.85714248 32.14285752 32.14285664 32.14285752z" fill="#BAE7FF" p-id="894"></path></svg>