<?xml version="1.0" standalone="no"?><!DOCTYPE svg PUBLIC "-//W3C//DTD SVG 1.1//EN" "http://www.w3.org/Graphics/SVG/1.1/DTD/svg11.dtd"><svg t="1570781240625" class="icon" viewBox="0 0 1024 1024" version="1.1" xmlns="http://www.w3.org/2000/svg" p-id="1070" xmlns:xlink="http://www.w3.org/1999/xlink" width="16" height="16"><defs><style type="text/css"></style></defs><path d="M270.92857168 62h482.14285664c70.71428584 0 128.57142832 57.85714248 128.5714292 128.57142832v642.85714336c0 70.71428584-57.85714248 128.57142832-128.5714292 128.57142832h-482.14285664c-70.71428584 0-128.57142832-57.85714248-128.5714292-128.57142832V190.57142832c0-70.71428584 57.85714248-128.57142832 128.5714292-128.57142832z" fill="#B5F5EC" p-id="1071"></path><path d="M238.78571416 62h546.42857168c54.64285752 0 96.42857168 41.78571416 96.42857168 96.42857168v546.4285708l-115.71428584 125.35714336L640.57142832 962H238.78571416c-54.64285752 0-96.42857168-41.78571416-96.42857168-96.42857168V158.42857168c0-54.64285752 41.78571416-96.42857168 96.42857168-96.42857168z" fill="#08979C" p-id="1072"></path><path d="M238.78571416 62h546.42857168c54.64285752 0 96.42857168 41.78571416 96.42857168 96.42857168v546.4285708h-160.71428585c-45 0-80.35714248 35.35714248-80.35714335 80.35714336V962H238.78571416c-54.64285752 0-96.42857168-41.78571416-96.42857168-96.42857168V158.42857168c0-54.64285752 41.78571416-96.42857168 96.42857168-96.42857168z" fill="#36CFC9" p-id="1073"></path><path d="M293.42857168 688.78571416h433.9285708c12.85714248 0 25.71428584-9.64285752 25.71428584-25.71428584 0-12.85714248-9.64285752-25.71428584-25.71428584-25.71428584H293.42857168c-12.85714248 0-25.71428584 9.64285752-25.71428584 25.71428584 3.21428584 16.07142832 12.85714248 25.71428584 25.71428584 25.71428584zM293.42857168 560.21428584h433.9285708c12.85714248 0 25.71428584-9.64285752 25.71428584-25.71428584 0-12.85714248-9.64285752-25.71428584-25.71428584-25.71428584H293.42857168c-12.85714248 0-25.71428584 9.64285752-25.71428584 25.71428584 3.21428584 16.07142832 12.85714248 25.71428584 25.71428584 25.71428584z" fill="#B5F5EC" p-id="1074"></path><path d="M415.57142832 248.42857168l41.78571416 151.07142832 41.78571504-151.07142832h38.57142832l41.78571416 151.07142832 41.78571416-151.07142832h45L595.57142832 447.71428584h-38.57142832l-41.78571416-147.85714336-41.78571416 147.85714336h-38.5714292l-64.28571416-199.28571416H415.57142832z" fill="#B5F5EC" p-id="1075"></path></svg>